<?xml version="1.0" encoding="utf-8"?>
<svg height="511pt" viewBox="1 1 311.774 307.39" width="511pt" xmlns="http://www.w3.org/2000/svg">
  <path d="M 141.838 148.339 L 163.049 169.554 L 96.713 235.89 L 75.502 214.675 Z M 141.838 148.339" fill="#ff6680"/>
  <path d="M 86.221 225.398 L 152.557 159.066 L 163.045 169.554 L 96.713 235.89 Z M 86.221 225.398" style="fill: rgb(255, 102, 128);"/>
  <path d="M 266.822 44.796 C 233.627 11.601 179.811 11.601 146.615 44.796 C 113.42 77.991 113.42 131.808 146.615 165.003 C 179.811 198.198 233.627 198.198 266.822 165.003 C 300.018 131.808 300.018 77.991 266.822 44.796 Z M 266.822 44.796" fill="#fff"/>
  <path d="M 136.014 175.609 C 97.022 136.62 97.022 73.179 136.014 34.187 C 175.002 -4.802 238.443 -4.802 277.432 34.187 C 316.424 73.179 316.424 136.62 277.432 175.609 C 238.443 214.597 175.002 214.601 136.014 175.609 Z M 256.221 55.402 C 228.928 28.109 184.518 28.109 157.225 55.402 C 129.932 82.694 129.932 127.101 157.225 154.394 C 184.518 181.687 228.928 181.687 256.221 154.394 C 283.514 127.101 283.514 82.694 256.221 55.402 Z M 256.221 55.402" fill="#5c6b99"/>
  <path d="M 277.432 34.187 L 256.221 55.402 C 283.514 82.694 283.514 127.101 256.221 154.394 C 228.928 181.687 184.518 181.687 157.225 154.394 L 136.014 175.609 C 175.002 214.597 238.443 214.597 277.432 175.609 C 316.424 136.62 316.424 73.179 277.432 34.187 Z M 277.432 34.187" style="fill: rgb(92, 107, 153);"/>
  <path d="M 87.111 182.081 L 129.537 224.507 L 48.221 305.823 L 5.795 263.398 Z M 87.111 182.081" fill="#808aff"/>
  <path d="M 27.006 284.612 L 108.322 203.296 L 129.533 224.507 L 48.217 305.823 Z M 27.006 284.612" style="fill: rgb(128, 138, 255);"/>
  <g fill="#c0dafb" transform="matrix(1, 0, 0, 1, -103.779251, -97.575058)">
    <path d="m269.949219 152.5h80v20h-80zm0 0"/>
    <path d="m269.949219 232.5h80v20h-80zm0 0"/>
    <path d="m254.949219 192.707031h110v20h-110zm0 0"/>
  </g>
  <path d="M 206.17 134.925 L 246.17 134.925 L 246.17 154.925 L 206.17 154.925 Z M 206.17 134.925" style="fill: rgb(192, 218, 251);"/>
  <path d="M 206.17 95.132 L 261.17 95.132 L 261.17 115.132 L 206.17 115.132 Z M 206.17 95.132" style="fill: rgb(192, 218, 251);"/>
  <path d="M 206.17 54.925 L 246.17 54.925 L 246.17 74.925 L 206.17 74.925 Z M 206.17 54.925" style="fill: rgb(192, 218, 251);"/>
</svg>