<?xml version="1.0" encoding="utf-8"?>
<svg height="362pt" viewBox="-3 0 362 362.01296" width="362pt" xmlns="http://www.w3.org/2000/svg">
  <path d="m178.347656 72.007812c19.882813 0 36-16.117187 36-36 0-19.882812-16.117187-35.9999995-36-35.9999995-19.882812 0-36 16.1171875-36 35.9999995.019532 19.871094 16.125 35.976563 36 36zm0-60c13.253906 0 24 10.742188 24 24 0 13.253907-10.746094 24-24 24-13.257812 0-24-10.746093-24-24 .015625-13.25 10.75-23.984374 24-24zm0 0" style="fill: rgb(154, 154, 154);"/>
  <path d="m36.015625 72.007812c19.882813 0 36-16.117187 36-36 0-19.882812-16.117187-35.9999995-36-35.9999995s-36 16.1171875-36 35.9999995c.0195312 19.871094 16.125 35.976563 36 36zm0-60c13.253906 0 24 10.742188 24 24 0 13.253907-10.746094 24-24 24-13.257813 0-24-10.746093-24-24 .015625-13.25 10.75-23.984374 24-24zm0 0" style="fill: rgb(154, 154, 154);"/>
  <path d="m356.679688 36.007812c.003906-19.105468-14.914063-34.882812-33.988282-35.9531245-19.074218-1.0664065-35.660156 12.9492185-37.789062 31.9335935s10.941406 36.324219 29.777344 39.507813v74.019531c-15.09375 2.578125-26.914063 14.398437-29.492188 29.492187h-71.351562c-2.921876-17.324218-17.921876-30.003906-35.488282-30.003906s-32.566406 12.679688-35.492187 30.003906h-71.351563c-3.050781-18.078124-19.199218-30.972656-37.503906-29.953124-18.304688 1.019531-32.917969 15.632812-33.9375 33.9375-1.019531 18.304687 11.875 34.453124 29.953125 37.503906v74.019531c-18.453125 3.121094-31.441406 19.859375-29.875 38.507813 1.566406 18.648437 17.160156 32.988281 35.875 32.988281s34.308594-14.339844 35.871094-32.988281c1.566406-18.648438-11.417969-35.386719-29.871094-38.507813v-74.019531c15.089844-2.578125 26.910156-14.398438 29.488281-29.488282h71.351563c2.925781 17.320313 17.925781 30 35.492187 30s32.566406-12.679687 35.488282-30h71.351562c3.050781 18.074219 19.199219 30.972657 37.503906 29.949219 18.304688-1.019531 32.917969-15.632812 33.9375-33.9375 1.023438-18.304687-11.875-34.453125-29.949218-37.503906v-74.019531c17.304687-2.945313 29.972656-17.933594 30-35.488282zm-296.664063 290c0 13.253907-10.746094 24-24 24-13.257813 0-24-10.746093-24-24 0-13.257812 10.742187-24 24-24 13.246094.015626 23.984375 10.75 24 24zm-24-121c-13.257813 0-24-10.746093-24-24 0-13.257812 10.742187-24 24-24 13.253906 0 24 10.742188 24 24-.015625 13.246094-10.753906 23.984376-24 24zm142.332031 0c-13.257812 0-24-10.746093-24-24 0-13.257812 10.742188-24 24-24 13.253906 0 24 10.742188 24 24-.015625 13.246094-10.753906 23.984376-24 24zm166.332032-24c0 13.253907-10.746094 24-24 24-13.257813 0-24-10.746093-24-24 0-13.257812 10.742187-24 24-24 13.246093.015626 23.984374 10.75 24 24zm-24-121c-13.257813 0-24-10.746093-24-24 0-13.257812 10.742187-24 24-24 13.253906 0 24 10.742188 24 24-.015626 13.246094-10.753907 23.984376-24 24zm0 0" style="fill: rgb(95, 95, 95);"/>
  <path d="m178.347656 290.007812c-19.882812 0-36 16.117188-36 36 0 19.882813 16.117188 36 36 36 19.882813 0 36-16.117187 36-36-.023437-19.875-16.128906-35.980468-36-36zm0 60c-13.257812 0-24-10.746093-24-24 0-13.257812 10.742188-24 24-24 13.253906 0 24 10.742188 24 24-.015625 13.246094-10.753906 23.984376-24 24zm0 0" style="fill: rgb(154, 154, 154);"/>
  <path d="m320.679688 290.007812c-19.882813 0-36 16.117188-36 36 0 19.882813 16.117187 36 36 36 19.878906 0 36-16.117187 36-36-.023438-19.875-16.128907-35.980468-36-36zm0 60c-13.257813 0-24-10.746093-24-24 0-13.257812 10.742187-24 24-24 13.253906 0 24 10.742188 24 24-.015626 13.246094-10.753907 23.984376-24 24zm0 0" style="fill: rgb(154, 154, 154);"/>
  <circle style="fill: rgb(185, 0, 0);" cx="36.558" cy="182.605" r="32.474" transform="matrix(0.649325, 0, 0, 0.643173, 12.620196, 63.560173)"/>
  <circle style="fill: rgb(185, 0, 0);" cx="35.933" cy="182.596" r="32.474" transform="matrix(0.649325, 0, 0, 0.643173, 155.067612, 63.959457)"/>
  <circle style="fill: rgb(185, 0, 0);" cx="36.558" cy="182.605" r="32.474" transform="matrix(0.649325, 0, 0, 0.643173, 296.915985, 63.959457)"/>
  <circle style="fill: rgb(185, 0, 0);" cx="36.558" cy="182.605" r="32.474" transform="matrix(0.649325, 0, 0, 0.643173, 296.915955, -81.08548)"/>
  <circle style="fill: rgb(185, 0, 0);" cx="36.558" cy="182.605" r="32.474" transform="matrix(0.649325, 0, 0, 0.643173, 12.420115, 208.604813)"/>
</svg>