<?xml version="1.0" encoding="UTF-8" standalone="no"?>
<svg
   xmlns:dc="http://purl.org/dc/elements/1.1/"
   xmlns:cc="http://creativecommons.org/ns#"
   xmlns:rdf="http://www.w3.org/1999/02/22-rdf-syntax-ns#"
   xmlns:svg="http://www.w3.org/2000/svg"
   xmlns="http://www.w3.org/2000/svg"
   xmlns:sodipodi="http://sodipodi.sourceforge.net/DTD/sodipodi-0.dtd"
   xmlns:inkscape="http://www.inkscape.org/namespaces/inkscape"
   width="48"
   height="48"
   viewBox="0 0 12.7 12.7"
   version="1.1"
   id="svg8"
   inkscape:version="1.0.2-2 (e86c870879, 2021-01-15)"
   sodipodi:docname="flame.svg">
  <defs
     id="defs2">
    <inkscape:path-effect
       effect="simplify"
       id="path-effect33"
       is_visible="true"
       lpeversion="1"
       steps="75"
       threshold="0.002"
       smooth_angles="160"
       helper_size="5"
       simplify_individual_paths="false"
       simplify_just_coalesce="false" />
    <inkscape:path-effect
       effect="bspline"
       id="path-effect26"
       is_visible="true"
       lpeversion="1"
       weight="90"
       steps="8"
       helper_size="7"
       apply_no_weight="true"
       apply_with_weight="true"
       only_selected="false" />
  </defs>
  <sodipodi:namedview
     id="base"
     pagecolor="#ffffff"
     bordercolor="#666666"
     borderopacity="1.0"
     inkscape:pageopacity="0.0"
     inkscape:pageshadow="2"
     inkscape:zoom="7.2407734"
     inkscape:cx="16.377117"
     inkscape:cy="38.420008"
     inkscape:document-units="mm"
     inkscape:current-layer="layer1"
     inkscape:document-rotation="0"
     showgrid="false"
     units="px"
     inkscape:window-width="1755"
     inkscape:window-height="1228"
     inkscape:window-x="931"
     inkscape:window-y="392"
     inkscape:window-maximized="0" />
  <metadata
     id="metadata5">
    <rdf:RDF>
      <cc:Work
         rdf:about="">
        <dc:format>image/svg+xml</dc:format>
        <dc:type
           rdf:resource="http://purl.org/dc/dcmitype/StillImage" />
        <dc:title></dc:title>
      </cc:Work>
    </rdf:RDF>
  </metadata>
  <g
     inkscape:label="Layer 1"
     inkscape:groupmode="layer"
     id="layer1">
    <path
       id="path30"
       style="fill:#b10000;fill-opacity:1;stroke:#000000;stroke-width:0;stroke-linecap:butt;stroke-linejoin:miter;stroke-miterlimit:4;stroke-dasharray:none;stroke-opacity:1"
       d="M 5.1827983,0.47758241 C 5.5233673,1.1138765 5.2612534,1.8220543 4.8793503,2.4406457 4.3818094,3.2465419 3.6113659,3.9140977 2.8132195,4.549266 1.6315324,5.4896588 0.91069332,6.8157941 0.97181022,8.1552737 1.0168752,9.1428935 1.4684255,10.152779 2.3846953,10.835998 c 0.8239266,0.614364 1.8679699,1.027424 2.9579794,1.234939 1.4142957,0.26925 2.9843334,0.165731 4.2390837,-0.444216 0.6582656,-0.319991 1.1273336,-0.82522 1.5201336,-1.346902 0.489532,-0.6501539 0.859485,-1.3846083 0.859474,-2.1550292 -10e-6,-0.8463734 -0.290468,-1.6691922 -0.589398,-2.4733644 -0.05718,-0.1538431 -0.116236,-0.3072589 -0.176136,-0.4604433 -0.208347,0.088074 -0.11999,0.2994762 -0.111385,0.4480449 0.03862,0.6665524 -0.206741,1.3170919 -0.531925,1.937319 -0.05685,0.1084323 -0.39258,0.3448317 -0.410555,0.1319448 -0.01434,-0.1698245 0.02734,-0.3372768 0.04621,-0.5063202 C 10.297968,6.218609 10.349925,5.201238 9.9666454,4.2490151 9.5688204,3.2606535 8.7127842,2.4281592 7.7086439,1.7842182 7.1286404,1.4122716 6.5491158,1.0318464 5.8974694,0.74162414 5.6680422,0.63944527 5.4298476,0.54929836 5.1828026,0.47758241 Z" />
  </g>
</svg>
