<?xml version="1.0" encoding="UTF-8" standalone="no"?>
<svg
   xmlns:dc="http://purl.org/dc/elements/1.1/"
   xmlns:cc="http://creativecommons.org/ns#"
   xmlns:rdf="http://www.w3.org/1999/02/22-rdf-syntax-ns#"
   xmlns:svg="http://www.w3.org/2000/svg"
   xmlns="http://www.w3.org/2000/svg"
   xmlns:sodipodi="http://sodipodi.sourceforge.net/DTD/sodipodi-0.dtd"
   xmlns:inkscape="http://www.inkscape.org/namespaces/inkscape"
   version="1.1"
   id="Capa_1"
   x="0px"
   y="0px"
   width="250"
   height="250"
   viewBox="0 0 937.5 937.5"
   xml:space="preserve"
   sodipodi:docname="gears.svg"
   inkscape:version="1.0.2-2 (e86c870879, 2021-01-15)"><metadata
   id="metadata1953"><rdf:RDF><cc:Work
       rdf:about=""><dc:format>image/svg+xml</dc:format><dc:type
         rdf:resource="http://purl.org/dc/dcmitype/StillImage" /><dc:title></dc:title></cc:Work></rdf:RDF></metadata><defs
   id="defs1951" /><sodipodi:namedview
   pagecolor="#ffffff"
   bordercolor="#666666"
   borderopacity="1"
   objecttolerance="10"
   gridtolerance="10"
   guidetolerance="10"
   inkscape:pageopacity="0"
   inkscape:pageshadow="2"
   inkscape:window-width="3840"
   inkscape:window-height="2066"
   id="namedview1949"
   showgrid="false"
   inkscape:zoom="5.6011521"
   inkscape:cx="134.75434"
   inkscape:cy="182.15748"
   inkscape:window-x="-11"
   inkscape:window-y="-11"
   inkscape:window-maximized="1"
   inkscape:current-layer="g1916"
   scale-x="3.75" />
<g
   id="g1916">
	<path
   d="m 60.442749,325.18654 c 4.678555,15.98437 11.171242,31.39787 19.382583,45.85992 L 56.43256,400.44629 c -7.638456,9.60965 -6.77913,23.31054 1.814133,31.96874 l 40.292856,40.15122 c 8.688751,8.6582 22.437971,9.41841 32.081521,1.80681 l 29.31257,-23.12025 c 15.08596,8.65915 31.12671,15.4135 47.83584,20.17075 l 4.39211,37.5823 c 1.43221,12.17857 11.74412,21.3125 23.96565,21.3125 h 57.00198 c 12.22153,0 22.53345,-9.13488 23.96566,-21.3125 l 4.20115,-36.25027 c 17.95037,-4.66211 35.1369,-11.6077 51.27314,-20.64648 l 28.35776,22.35909 c 9.64356,7.61161 23.39278,6.7553 32.08152,-1.80775 l 40.29286,-40.15122 c 8.68874,-8.6582 9.45259,-22.35909 1.81413,-31.96875 l -22.05604,-27.8775 c 9.16614,-15.79503 16.3272,-32.63476 21.10123,-50.2366 l 33.99113,-3.90094 c 12.22249,-1.42718 21.38768,-11.70285 21.38768,-23.88142 v -56.8016 c 0,-12.17857 -9.16615,-22.45424 -21.38768,-23.88141 l -33.51372,-3.90095 c -4.58403,-17.41155 -11.45769,-34.06194 -20.24096,-49.66573 l 20.62383,-25.9746 c 7.63846,-9.60965 6.77913,-23.31054 -1.81413,-31.96874 L 433.00941,62.394911 C 424.32066,53.73671 410.57144,52.97555 400.92789,60.587155 L 375.6255,80.567619 C 359.20282,70.957968 341.63342,63.631797 323.2066,58.684254 L 319.38737,26.049495 C 317.95516,13.870927 307.64324,4.737 295.42171,4.737 h -57.00197 c -12.22153,0 -22.53345,9.133927 -23.96566,21.312495 l -3.81923,32.634759 c -18.90518,5.042688 -36.95103,12.654294 -53.75563,22.644526 l -26.2572,-20.741625 c -9.64355,-7.611605 -23.39277,-6.7553 -32.081516,1.807756 L 58.247648,102.54613 c -8.688744,8.6582 -9.452589,22.35909 -1.814133,31.96874 l 21.960561,27.68722 c -8.784225,15.79408 -15.467874,32.63476 -19.859986,50.14145 l -35.136898,3.99609 C 11.175663,217.76681 2.0095153,228.04248 2.0095153,240.22104 v 56.80161 c 0,12.17857 9.1661477,22.45424 21.3876767,23.88141 z M 266.96751,171.52726 c 51.9415,0 94.23945,42.14926 94.23945,93.90818 0,51.75892 -42.29795,93.90818 -94.23945,93.90818 -51.94055,0 -94.23945,-42.14926 -94.23945,-93.90818 0,-51.75892 42.29795,-93.90818 94.23945,-93.90818 z"
   id="gear1"
   style="fill:#565656;fill-opacity:1;stroke-width:0.953127" />
	<path
   d="m 871.15147,354.1496 -30.79458,-25.78878 c -9.48181,-7.94992 -23.46256,-7.56212 -32.45556,0.87256 l -17.01034,15.8029 C 776.52115,338.1528 761.2705,333.30529 745.53006,330.49373 l -4.78831,-23.26808 c -2.44402,-12.02183 -13.68649,-20.35956 -26.00628,-19.39005 l -40.17961,3.39325 c -12.31784,1.06645 -21.99614,11.05234 -22.38718,23.36503 l -0.78111,23.65587 c -15.44715,5.52617 -30.01349,13.0883 -43.30893,22.58943 l -20.33323,-13.37915 c -10.36458,-6.78651 -24.14785,-4.84751 -32.16324,4.55667 l -26.00432,30.73325 c -8.01736,9.40418 -7.62631,23.26807 0.87789,32.1875 l 17.7934,18.8074 c -6.15989,13.76694 -10.55912,28.2135 -13.09992,43.04593 l -25.41775,5.13837 c -12.12232,2.42375 -20.52974,13.57305 -19.55213,25.78975 l 3.42162,39.84658 c 1.07537,12.21574 11.14472,21.81382 23.56031,22.20162 l 27.47073,0.87158 c 4.98775,12.99135 11.53673,25.305 19.45436,36.84112 l -15.34744,22.97723 c -6.84323,10.27674 -4.88802,23.94672 4.59378,31.89665 l 30.79459,25.78879 c 9.48376,7.94992 23.46255,7.56212 32.4575,-0.87255 l 20.13869,-18.71142 c 13.19768,6.10787 27.07871,10.66453 41.35176,13.37915 l 5.57333,27.33998 c 2.44402,12.02184 13.68649,20.35957 26.00433,19.39007 l 40.17961,-3.39327 c 12.31784,-1.06645 21.99614,-11.05136 22.38718,-23.36502 l 0.87984,-26.75926 c 14.6641,-5.13836 28.54513,-12.11878 41.35176,-20.7464 l 22.19264,14.54255 c 10.36263,6.78653 24.14589,4.84752 32.16324,-4.55666 l 26.00433,-30.53935 c 8.0154,-9.40418 7.62435,-23.26807 -0.87985,-32.18751 L 876.04048,582.8554 c 6.55094,-13.76695 11.34219,-28.3095 14.07753,-43.24082 l 24.44016,-4.94446 c 12.12231,-2.42376 20.52972,-13.57304 19.55212,-25.78975 l -3.42163,-39.84658 c -1.07536,-12.21574 -11.1447,-21.81382 -23.5603,-22.20162 l -24.53792,-0.7756 c -5.08453,-14.15475 -11.92776,-27.53292 -20.43197,-39.94354 l 13.39223,-19.97176 c 7.03974,-10.27479 5.08454,-24.04174 -4.39923,-31.99167 z M 719.72224,584.50258 c -43.40572,3.68508 -81.72983,-28.40644 -85.346,-71.45141 -3.71587,-43.04594 28.64484,-81.05143 72.0486,-84.63859 43.40571,-3.68411 81.72983,28.40741 85.346,71.45237 3.71587,43.04692 -28.64484,81.05144 -72.0486,84.63763 z"
   id="gear2"
   style="fill:#565656;fill-opacity:1;stroke-width:0.973546" />
	<path
   d="m 207.00852,704.438 c -12.6,1.3 -22.3,11.899 -22.4,24.6 l -0.3,25.3 c -0.2,12.7 9.2,23.5 21.8,25.101 l 18.6,2.399 c 3.1,11.301 7.5,22.101 13.2,32.301 l -12,14.8 c -8,9.899 -7.4,24.1 1.5,33.2 l 17.7,18.1 c 8.9,9.1 23.1,10.1 33.2,2.3 l 14.899,-11.5 c 10.5,6.2 21.601,11.101 33.2,14.5 l 2,19.2 c 1.3,12.6 11.9,22.3 24.6,22.4 l 25.301,0.3 c 12.699,0.2 23.5,-9.2 25.1,-21.8 l 2.3,-18.2 c 12.601,-3.101 24.601,-7.8 36,-14 l 14,11.3 c 9.9,8 24.101,7.4 33.201,-1.5 l 18.1,-17.7 c 9.1,-8.899 10.1,-23.1 2.301,-33.2 l -10.702,-13.901 c 6.6,-11 11.701,-22.7 15.201,-35 l 16.6,-1.7 c 12.6,-1.3 22.299,-11.9 22.4,-24.6 l 0.299,-25.301 c 0.201,-12.699 -9.199,-23.5 -21.799,-25.1 l -16.201,-2.1 c -3.1,-12.2 -7.699,-24 -13.699,-35 l 10.1,-12.4 c 8,-9.9 7.4,-24.1 -1.5,-33.2 l -17.699,-18.1 c -8.9,-9.101 -23.102,-10.101 -33.201,-2.3 l -12.101,9.3 c -11.399,-6.9 -23.6,-12.2 -36.399,-15.8 l -1.601,-15.7 c -1.3,-12.601 -11.899,-22.3 -24.6,-22.4 l -25.3,-0.3 c -12.7,-0.2 -23.5,9.2 -25.101,21.8 l -2,15.601 c -13.199,3.399 -25.899,8.6 -37.699,15.399 l -12.5,-10.2 c -9.9,-8 -24.101,-7.399 -33.201,1.5 l -18.2,17.801 c -9.1,8.899 -10.1,23.1 -2.3,33.199 l 10.7,13.801 c -6.2,11 -11.1,22.699 -14.3,35 z m 163.3,-28.601 c 36.3,0.4 65.399,30.301 65,66.601 -0.4,36.3 -30.301,65.399 -66.601,65 -36.3,-0.4 -65.399,-30.3 -65,-66.601 0.401,-36.299 30.301,-65.399 66.601,-65 z"
   id="gear3"
   style="fill:#565656;fill-opacity:1" />
</g>
<g
   id="g1918">
</g>
<g
   id="g1920">
</g>
<g
   id="g1922">
</g>
<g
   id="g1924">
</g>
<g
   id="g1926">
</g>
<g
   id="g1928">
</g>
<g
   id="g1930">
</g>
<g
   id="g1932">
</g>
<g
   id="g1934">
</g>
<g
   id="g1936">
</g>
<g
   id="g1938">
</g>
<g
   id="g1940">
</g>
<g
   id="g1942">
</g>
<g
   id="g1944">
</g>
<g
   id="g1946">
</g>
</svg>
