<?xml version="1.0" encoding="UTF-8" standalone="no"?>
<svg
   xmlns:dc="http://purl.org/dc/elements/1.1/"
   xmlns:cc="http://creativecommons.org/ns#"
   xmlns:rdf="http://www.w3.org/1999/02/22-rdf-syntax-ns#"
   xmlns:svg="http://www.w3.org/2000/svg"
   xmlns="http://www.w3.org/2000/svg"
   xmlns:sodipodi="http://sodipodi.sourceforge.net/DTD/sodipodi-0.dtd"
   xmlns:inkscape="http://www.inkscape.org/namespaces/inkscape"
   version="1.1"
   id="Icons"
   x="0px"
   y="0px"
   viewBox="0 0 50.0025 50.0025"
   xml:space="preserve"
   sodipodi:docname="money.svg"
   width="250"
   height="250"
   inkscape:version="1.0.2-2 (e86c870879, 2021-01-15)"><metadata
   id="metadata2570"><rdf:RDF><cc:Work
       rdf:about=""><dc:format>image/svg+xml</dc:format><dc:type
         rdf:resource="http://purl.org/dc/dcmitype/StillImage" /><dc:title></dc:title></cc:Work></rdf:RDF></metadata><defs
   id="defs2568" /><sodipodi:namedview
   pagecolor="#ffffff"
   bordercolor="#666666"
   borderopacity="1"
   objecttolerance="10"
   gridtolerance="10"
   guidetolerance="10"
   inkscape:pageopacity="0"
   inkscape:pageshadow="2"
   inkscape:window-width="3840"
   inkscape:window-height="2066"
   id="namedview2566"
   showgrid="false"
   scale-x="0.20001"
   inkscape:zoom="2.625"
   inkscape:cx="-33.735011"
   inkscape:cy="82.877715"
   inkscape:window-x="-11"
   inkscape:window-y="-11"
   inkscape:window-maximized="1"
   inkscape:current-layer="g2563" />
<style
   type="text/css"
   id="style2544">
	.st0{opacity:0.15;fill:#45413C;}
	.st1{fill:#BF8256;}
	.st2{fill:#915E3A;}
	.st3{fill:none;stroke:#45413C;stroke-linecap:round;stroke-linejoin:round;stroke-miterlimit:10;}
	.st4{fill:#DEA47A;}
	.st5{fill:#DAEDF7;stroke:#45413C;stroke-linecap:round;stroke-linejoin:round;stroke-miterlimit:10;}
	.st6{fill:#BF8256;stroke:#45413C;stroke-linecap:round;stroke-linejoin:round;stroke-miterlimit:10;}
	.st7{fill:#FF6242;}
	.st8{fill:#FF866E;}
	.st9{fill:#DEBB7E;}
	.st10{fill:#B89558;}
	.st11{fill:#656769;}
	.st12{fill:#525252;}
	.st13{fill:#E04122;}
	.st14{fill:#FFFFFF;}
	.st15{fill:#F0F0F0;}
	.st16{fill:#00B8F0;}
	.st17{fill:#4ACFFF;}
	.st18{fill:#C0DCEB;}
	.st19{fill:#8CA4B8;}
	.st20{fill:#FF6242;stroke:#45413C;stroke-linecap:round;stroke-linejoin:round;stroke-miterlimit:10;}
	.st21{fill:#87898C;}
	.st22{fill:#E0E0E0;}
	.st23{fill:#E8F4FA;stroke:#45413C;stroke-linecap:round;stroke-linejoin:round;stroke-miterlimit:10;}
	.st24{fill:#656769;stroke:#45413C;stroke-linecap:round;stroke-linejoin:round;stroke-miterlimit:10;}
	.st25{fill:#DAEDF7;}
	.st26{fill:#E8F4FA;}
	.st27{fill:#ADC4D9;stroke:#45413C;stroke-linecap:round;stroke-linejoin:round;stroke-miterlimit:10;}
	.st28{fill:#87898C;stroke:#45413C;stroke-linecap:round;stroke-linejoin:round;stroke-miterlimit:10;}
	.st29{fill:#BDBEC0;}
	.st30{fill:#FFFFFF;stroke:#45413C;stroke-linecap:round;stroke-linejoin:round;stroke-miterlimit:10;}
	.st31{fill:#ADC4D9;}
	.st32{fill:none;stroke:#00AED9;stroke-linecap:round;stroke-linejoin:round;stroke-miterlimit:10;}
	.st33{fill:#FFFACF;}
	.st34{fill:#FFE500;}
	.st35{fill:#915E3A;stroke:#45413C;stroke-linecap:round;stroke-linejoin:round;stroke-miterlimit:10;}
	.st36{fill:#FFAA54;}
	.st37{fill:#627B8C;stroke:#45413C;stroke-linecap:round;stroke-linejoin:round;stroke-miterlimit:10;}
	.st38{fill:#FFFEF2;}
	.st39{fill:#FFFCE5;stroke:#45413C;stroke-linecap:round;stroke-linejoin:round;stroke-miterlimit:10;}
	.st40{fill:#00F5BC;}
	.st41{fill:#FFFCE5;}
	.st42{fill:#FFFEF2;stroke:#45413C;stroke-linecap:round;stroke-linejoin:round;stroke-miterlimit:10;}
	.st43{fill:#8CFFE4;}
	.st44{fill:#FFF5E3;}
	.st45{fill:#F7E5C6;}
	.st46{fill:#F7E5C6;stroke:#45413C;stroke-linecap:round;stroke-linejoin:round;stroke-miterlimit:10;}
	.st47{fill:#F0D5A8;}
	.st48{fill:#FF87AF;stroke:#45413C;stroke-linecap:round;stroke-linejoin:round;stroke-miterlimit:10;}
	.st49{fill:#45413C;}
	.st50{fill:#BDBEC0;stroke:#45413C;stroke-linecap:round;stroke-linejoin:round;stroke-miterlimit:10;}
	.st51{fill:#E0E0E0;stroke:#45413C;stroke-linecap:round;stroke-linejoin:round;stroke-miterlimit:10;}
	.st52{fill:#DEBB7E;stroke:#45413C;stroke-linecap:round;stroke-linejoin:round;stroke-miterlimit:10;}
	.st53{fill:#F5EBFF;stroke:#45413C;stroke-linecap:round;stroke-linejoin:round;stroke-miterlimit:10;}
	.st54{fill:#BF8DF2;stroke:#45413C;stroke-linecap:round;stroke-linejoin:round;stroke-miterlimit:10;}
	.st55{fill:#E4FFD1;stroke:#45413C;stroke-linecap:round;stroke-linejoin:round;stroke-miterlimit:10;}
	.st56{fill:#F0FFE5;}
	.st57{fill:#C8FFA1;stroke:#45413C;stroke-linecap:round;stroke-linejoin:round;stroke-miterlimit:10;}
	.st58{fill:#6DD627;stroke:#45413C;stroke-linecap:round;stroke-linejoin:round;stroke-miterlimit:10;}
	.st59{fill:#E5FEFF;}
	.st60{fill:#FFAA54;stroke:#45413C;stroke-linecap:round;stroke-linejoin:round;stroke-miterlimit:10;}
	.st61{fill:#9CEB60;stroke:#45413C;stroke-linecap:round;stroke-linejoin:round;stroke-miterlimit:10;}
	.st62{fill:#FFF48C;}
	.st63{fill:#00B8F0;stroke:#45413C;stroke-linecap:round;stroke-linejoin:round;stroke-miterlimit:10;}
	.st64{fill:none;stroke:#4F4B45;stroke-linejoin:round;stroke-miterlimit:10;}
	.st65{fill:#FFFFFF;stroke:#4F4B45;stroke-linejoin:round;stroke-miterlimit:10;}
	.st66{fill:#FFF5E3;stroke:#4F4B45;stroke-linejoin:round;stroke-miterlimit:10;}
	.st67{fill:#F7E5C6;stroke:#4F4B45;stroke-linejoin:round;stroke-miterlimit:10;}
	.st68{fill:#6DD627;}
	.st69{fill:#EBCB00;}
	.st70{fill:#46B000;}
	.st71{fill:none;stroke:#E0E0E0;stroke-linecap:round;stroke-linejoin:round;stroke-miterlimit:10;}
	.st72{fill:#9CEB60;}
	.st73{fill:#FFCC99;}
	.st74{fill:#BF8DF2;}
	.st75{fill:#9F5AE5;}
	.st76{fill:#DABFF5;}
	.st77{fill:#F0F0F0;stroke:#45413C;stroke-linecap:round;stroke-linejoin:round;stroke-miterlimit:10;}
	.st78{fill:#E5F8FF;}
	.st79{fill:#B8ECFF;}
	.st80{fill:#D9FDFF;}
	.st81{fill:#C0DCEB;stroke:#45413C;stroke-linecap:round;stroke-linejoin:round;stroke-miterlimit:10;}
	.st82{fill:#46B000;stroke:#45413C;stroke-linecap:round;stroke-linejoin:round;stroke-miterlimit:10;}
	.st83{fill:none;stroke:#FFFFFF;stroke-miterlimit:10;}
	.st84{fill:none;stroke:#FFFFFF;stroke-linecap:round;stroke-linejoin:round;stroke-miterlimit:10;}
	.st85{fill:#FFE500;stroke:#45413C;stroke-linecap:round;stroke-linejoin:round;stroke-miterlimit:10;}
	.st86{fill:#80DDFF;stroke:#45413C;stroke-linecap:round;stroke-linejoin:round;stroke-miterlimit:10;}
	.st87{fill:#FFFFFF;stroke:#45413C;stroke-linejoin:round;stroke-miterlimit:10;}
	.st88{fill:#009FD9;stroke:#45413C;stroke-linecap:round;stroke-linejoin:round;stroke-miterlimit:10;}
	.st89{fill:#E04122;stroke:#45413C;stroke-linecap:round;stroke-linejoin:round;stroke-miterlimit:10;}
	.st90{fill:#009FD9;}
	.st91{fill:#FFFFFF;stroke:#45413C;stroke-miterlimit:10;}
	.st92{fill:#009FD9;stroke:#45413C;stroke-miterlimit:10;}
	.st93{fill:#FF8A14;stroke:#45413C;stroke-linecap:round;stroke-linejoin:round;stroke-miterlimit:10;}
	.st94{fill:none;stroke:#009FD9;stroke-linecap:round;stroke-linejoin:round;stroke-miterlimit:10;}
	.st95{fill:#525252;stroke:#45413C;stroke-linecap:round;stroke-linejoin:round;stroke-miterlimit:10;}
	.st96{fill:none;stroke:#46B000;stroke-linecap:round;stroke-linejoin:round;stroke-miterlimit:10;}
	.st97{fill:none;stroke:#E04122;stroke-linecap:round;stroke-linejoin:round;stroke-miterlimit:10;}
	.st98{fill:#6DD627;stroke:#45413C;stroke-miterlimit:10;}
	.st99{fill:none;stroke:#45413C;stroke-linejoin:round;stroke-miterlimit:10;}
	.st100{fill:#46B000;stroke:#45413C;stroke-miterlimit:10;}
	.st101{fill:#00DFEB;}
	.st102{fill:#00AD85;}
	.st103{fill:#E04122;stroke:#45413C;stroke-miterlimit:10;}
</style>
<g
   id="g2563">
	<path
   id="XMLID_17303_"
   class="st47"
   d="m 20.5,13 c 0,0 -0.7,-2.3 1.1,-6.1 1.7,-3.7 5.1,-4.7 6.9,-3.7 2.1,1.1 1.7,3.2 1.7,3.2 0,0 3.5,-0.8 4.1,2.1 0.5,2.8 -1.3,3.9 -3.5,4 -2.3,0.1 -3.5,1.3 -3.5,1.3 z" />
	<path
   class="st45"
   d="m 30.2,6.4 c 0,0 0.3,-2.1 -1.7,-3.2 -1.8,-0.9 -5.1,0 -6.8,3.5 1.2,-1.2 2.6,-1.9 4,-1.5 2.3,0.7 2.2,2.1 2.2,2.1 0,0 2.2,-0.6 4.3,0.7 1.2,0.8 1.8,1.8 2,2.7 0.2,-0.6 0.3,-1.3 0.1,-2.2 C 33.7,5.7 30.2,6.4 30.2,6.4 Z"
   id="path2547" />
	<path
   id="XMLID_17302_"
   class="st3"
   d="m 20.5,13 c 0,0 -0.7,-2.3 1.1,-6.1 1.7,-3.7 5.1,-4.7 6.9,-3.7 2.1,1.1 1.7,3.2 1.7,3.2 0,0 3.5,-0.8 4.1,2.1 0.5,2.8 -1.3,3.9 -3.5,4 -2.3,0.1 -3.5,1.3 -3.5,1.3 z" />
	<path
   id="XMLID_17301_"
   class="st6"
   d="m 29.3,14.6 c 0,1.7 -2.4,3.8 -5.3,3.8 -2.9,0 -5.3,-2.1 -5.3,-3.8 0,-1.7 2.4,-2.2 5.3,-2.2 2.9,0 5.3,0.6 5.3,2.2 z" />
	
	<path
   class="st47"
   d="m 37.2,43 c 0.9,-0.3 1.5,-1.1 1.5,-2 L 38.1,27.8 C 37.8,20.9 31.6,15.5 24,15.5 16.4,15.5 10.2,20.9 9.9,27.7 L 9.3,40.9 c 0,0.9 0.6,1.7 1.5,2 8.5,2.9 17.9,2.9 26.4,0.1 z"
   id="path2552" />
	<path
   class="st45"
   d="M 38.2,30.9 38,27.8 C 37.7,20.9 31.5,15.5 23.9,15.5 16.4,15.5 10.1,20.9 9.8,27.8 l -0.2,3.1 c 0.9,-6.4 7.1,-11.2 14.2,-11.2 7.3,0 13.5,4.8 14.4,11.2 z"
   id="path2554" />
	<path
   class="st3"
   d="m 37.2,43 c 0.9,-0.3 1.5,-1.1 1.5,-2 L 38.1,27.8 C 37.8,20.9 31.6,15.5 24,15.5 16.4,15.5 10.2,20.9 9.9,27.7 L 9.3,40.9 c 0,0.9 0.6,1.7 1.5,2 8.5,2.9 17.9,2.9 26.4,0.1 z"
   id="path2556" />
	<path
   id="XMLID_17299_"
   class="st3"
   d="m 20.2,20.6 c 0,-2.9 1.7,-5.2 3.8,-5.2 2.1,0 3.8,2.3 3.8,5.2" />
	<path
   id="XMLID_17298_"
   class="st48"
   d="M 30.2,6.4 C 27.5,6.8 25.8,8.7 25.8,8.7" />
	<g
   id="XMLID_17297_">
		<path
   class="st49"
   d="m 23.3,36.6 v -3.4 c -0.4,-0.1 -0.9,-0.3 -1.5,-0.5 -0.6,-0.2 -1.1,-0.4 -1.5,-0.7 -0.4,-0.3 -0.8,-0.7 -1,-1.1 -0.3,-0.5 -0.4,-1 -0.4,-1.7 0,-0.8 0.2,-1.6 0.6,-2.3 0.4,-0.7 0.9,-1.2 1.6,-1.6 0.7,-0.4 1.4,-0.6 2.2,-0.7 v 0 -0.6 c 0,-0.2 0,-0.4 0,-0.5 0,-0.1 0.1,-0.2 0.2,-0.3 0.1,-0.1 0.2,-0.1 0.4,-0.1 0.2,0 0.4,0.1 0.5,0.2 0.1,0.1 0.1,0.4 0.1,0.7 v 0.6 c 0.8,0 1.7,0.2 2.4,0.5 0.7,0.3 1.2,0.8 1.2,1.5 0,0.4 -0.1,0.8 -0.4,1.1 -0.3,0.3 -0.6,0.4 -1,0.4 -0.3,0 -0.6,-0.1 -1.1,-0.3 -0.5,-0.2 -0.8,-0.3 -1.1,-0.3 v 2.7 c 0.9,0.3 1.7,0.6 2.4,0.8 0.6,0.3 1.2,0.7 1.6,1.3 0.5,0.6 0.7,1.4 0.7,2.4 0,0.7 -0.1,1.3 -0.4,1.8 -0.2,0.6 -0.6,1 -1,1.5 -0.4,0.4 -0.9,0.7 -1.5,1 -0.6,0.3 -1.2,0.4 -1.8,0.4 v 0.1 0.6 c 0,0.2 0,0.4 0,0.5 0,0.1 -0.1,0.2 -0.2,0.3 -0.1,0.1 -0.2,0.1 -0.4,0.1 -0.2,0 -0.4,-0.1 -0.5,-0.2 -0.1,-0.2 -0.1,-0.4 -0.1,-0.7 v -0.6 c -0.7,0 -1.3,-0.1 -2,-0.2 -0.7,-0.1 -1.3,-0.4 -1.7,-0.7 -0.5,-0.3 -0.7,-0.8 -0.7,-1.3 0,-0.4 0.1,-0.8 0.4,-1 0.3,-0.3 0.6,-0.4 1,-0.4 0.3,0 0.8,0.1 1.5,0.4 0.7,0.3 1.2,0.3 1.5,0.3 z m 0,-6.7 v -2.3 c -0.3,0.1 -0.6,0.2 -0.8,0.5 -0.2,0.3 -0.3,0.5 -0.3,0.8 0,0.3 0.1,0.5 0.3,0.6 0.2,0.1 0.5,0.2 0.8,0.4 z m 1.2,3.7 v 3 c 0.4,-0.1 0.7,-0.3 1,-0.6 0.2,-0.3 0.4,-0.7 0.4,-1.1 -0.1,-0.6 -0.5,-1 -1.4,-1.3 z"
   id="path2560" />
	</g>
</g>
</svg>
